<?xml version="1.0" standalone="no"?>
<!DOCTYPE svg PUBLIC "-//W3C//DTD SVG 20010904//EN"
 "http://www.w3.org/TR/2001/REC-SVG-20010904/DTD/svg10.dtd">
<svg version="1.0" xmlns="http://www.w3.org/2000/svg"
 width="840.000000pt" height="297.000000pt" viewBox="0 0 840.000000 297.000000"
 preserveAspectRatio="xMidYMid meet">

<g transform="translate(0.000000,297.000000) scale(0.100000,-0.100000)"
fill="currentColor" stroke="none">
<path d="M3486 2548 c-11 -15 -16 -45 -16 -91 l0 -69 -22 14 c-19 12 -24 26
-26 71 -3 47 -6 56 -25 61 -12 3 -286 6 -608 6 -555 0 -587 -1 -602 -18 -15
-16 -17 -48 -17 -241 0 -220 0 -222 -25 -259 -17 -26 -25 -50 -25 -82 0 -25
-7 -67 -16 -95 -31 -102 -19 -180 42 -261 23 -30 24 -36 24 -240 0 -115 4
-214 8 -220 21 -32 51 -34 616 -34 310 0 572 3 581 6 35 14 45 58 45 198 0
124 2 136 19 146 11 5 22 10 25 10 3 0 6 -49 6 -109 0 -114 9 -155 38 -177 13
-11 135 -13 587 -14 342 0 576 4 585 10 12 7 16 41 21 157 l5 148 2 -167 2
-167 26 -20 c26 -21 35 -21 599 -21 549 0 574 1 596 19 l24 19 5 503 5 503 34
2 c53 3 74 32 79 109 5 77 -6 99 -73 145 -44 30 -45 32 -45 84 0 40 -4 55 -16
60 -9 3 -280 6 -603 6 -515 0 -589 -2 -609 -16 -22 -15 -22 -20 -24 -247 l-2
-232 -6 253 c-4 210 -8 254 -20 262 -9 6 -248 10 -597 10 l-582 0 -15 -22z
m1135 -18 c25 -7 39 -18 43 -33 8 -31 6 -491 -4 -557 -4 -34 -8 60 -9 245 -1
169 -5 307 -11 315 -8 13 -82 15 -545 18 -366 2 -541 -1 -555 -8 -17 -9 -20
-21 -20 -88 0 -53 -3 -72 -10 -62 -14 22 -12 133 3 152 6 9 19 18 27 21 29 10
1044 7 1081 -3z m-233 -43 c4 -22 -27 -35 -38 -16 -10 15 7 42 24 36 6 -2 12
-11 14 -20z m-1037 3 c14 -8 19 -20 18 -48 -1 -27 -3 -31 -6 -12 -10 52 11 50
-555 50 -346 0 -536 -4 -549 -10 -18 -10 -19 -24 -19 -250 0 -153 -4 -240 -10
-240 -6 0 -10 86 -10 239 l0 240 26 20 c26 21 36 21 556 21 346 0 536 -4 549
-10z m419 -5 c17 -20 5 -45 -20 -45 -11 0 -23 7 -26 15 -6 15 11 45 26 45 4 0
13 -7 20 -15z m748 -13 c3 -16 -2 -22 -17 -22 -24 0 -35 15 -27 36 9 23 40 13
44 -14z m1391 -3 c9 -17 11 -32 6 -45 -8 -16 -9 -15 -13 11 -2 16 -9 33 -15
37 -7 4 -251 8 -544 8 -470 0 -533 -2 -547 -16 -14 -13 -16 -50 -16 -250 0
-149 -4 -234 -10 -234 -6 0 -10 86 -10 239 l0 240 26 20 c27 21 33 21 568 19
l540 -3 15 -26z m-2301 -7 c4 -28 -24 -41 -44 -20 -20 20 -7 50 20 46 13 -2
22 -12 24 -26z m626 12 c8 -21 -1 -34 -25 -34 -12 0 -19 7 -19 18 0 34 33 45
44 16z m-294 -10 c11 -12 10 -18 -3 -32 -16 -15 -18 -15 -34 0 -13 14 -14 20
-3 32 7 9 16 16 20 16 4 0 13 -7 20 -16z m236 -67 c9 -16 13 -36 10 -44 -5
-13 15 -15 164 -12 157 4 170 3 170 -14 0 -9 -23 -62 -50 -117 -28 -55 -57
-126 -65 -158 -16 -60 -23 -212 -11 -250 10 -30 -19 -30 -52 1 -20 19 -37 23
-112 25 -87 4 -90 3 -114 -25 -29 -32 -31 -50 -12 -76 10 -13 13 -42 10 -100
-3 -69 -7 -84 -23 -96 -19 -12 -22 -11 -31 14 -14 36 -13 50 7 106 15 40 15
53 5 69 -20 32 -14 67 14 89 l27 21 -34 0 c-19 0 -45 -7 -57 -16 -21 -14 -22
-21 -22 -165 0 -146 1 -151 25 -174 26 -27 47 -33 39 -11 -10 25 44 74 99 90
74 21 99 48 96 100 -3 67 0 82 20 107 l20 24 0 -45 c0 -25 3 -68 6 -95 6 -43
3 -55 -16 -79 -17 -22 -22 -40 -20 -72 4 -61 -8 -74 -30 -33 -13 25 -14 37 -6
47 8 11 5 12 -19 7 -66 -15 -95 -28 -105 -47 -12 -23 -14 -21 26 -34 17 -5 30
-16 30 -24 0 -13 -32 -15 -205 -18 -112 -1 -211 0 -219 3 -20 8 0 27 42 41 20
7 34 20 38 35 4 13 7 178 8 367 1 384 -1 396 -62 425 -19 9 -48 17 -64 17 -16
0 -37 6 -47 13 -17 12 -17 14 0 28 13 11 68 15 260 19 l244 5 -25 53 c-33 71
-33 97 1 57 14 -16 32 -43 40 -58z m-1261 28 c0 -27 -3 -30 -30 -30 -21 0 -31
5 -33 18 -6 33 6 49 35 45 24 -3 28 -8 28 -33z m1682 24 c16 -16 5 -39 -17
-39 -23 0 -34 16 -26 35 6 18 28 19 43 4z m858 -24 c0 -27 -3 -30 -30 -30 -21
0 -31 5 -33 18 -6 33 6 49 35 45 24 -3 28 -8 28 -33z m-2277 9 c27 -19 27 -25
3 -55 -18 -22 -19 -22 -45 -6 -30 20 -32 33 -9 59 20 22 23 22 51 2z m2554 -8
c12 -17 9 -33 -8 -50 -20 -20 -27 -20 -55 3 -22 18 -23 19 -5 45 13 21 22 25
39 20 12 -4 25 -12 29 -18z m-1678 -8 c8 -14 7 -21 -6 -34 -30 -30 -75 9 -48
42 16 18 39 15 54 -8z m-1686 -19 c4 -31 -20 -53 -47 -44 -45 14 -30 79 17 73
21 -2 28 -9 30 -29z m126 18 c26 -19 18 -71 -12 -75 -13 -2 -30 2 -38 8 -19
17 -18 57 4 69 22 13 25 13 46 -2z m154 -14 c-3 -32 -44 -46 -54 -19 -10 26 4
46 31 46 23 0 26 -4 23 -27z m1217 7 c8 -27 -1 -40 -30 -40 -27 0 -41 26 -24
46 17 20 47 17 54 -6z m434 6 c17 -20 3 -46 -24 -46 -29 0 -38 13 -30 40 7 23
37 26 54 6z m170 0 c15 -18 -2 -56 -24 -56 -26 0 -46 29 -35 51 13 22 43 25
59 5z m439 -22 c3 -34 -16 -49 -48 -39 -43 14 -26 78 18 73 22 -2 28 -9 30
-34z m137 16 c37 -41 -24 -97 -63 -58 -17 17 -15 44 4 62 21 21 37 20 59 -4z
m148 8 c7 -21 -12 -48 -34 -48 -22 0 -34 22 -25 45 7 18 53 20 59 3z m-1463
-13 c15 -18 5 -35 -20 -35 -23 0 -32 13 -24 34 8 20 28 21 44 1z m-696 -8 c36
-26 -4 -84 -41 -61 -24 15 -27 38 -8 58 20 19 26 20 49 3z m2544 1 c7 -7 12
-22 12 -35 0 -31 -47 -44 -67 -18 -17 24 -16 30 3 49 19 19 36 20 52 4z
m-1958 -24 c0 -8 -7 -14 -15 -14 -15 0 -21 21 -9 33 10 9 24 -2 24 -19z m-846
0 c19 -18 20 -28 6 -55 -21 -39 -90 -16 -90 30 0 16 30 41 50 41 10 0 26 -7
34 -16z m651 1 c37 -15 54 -40 39 -55 -13 -13 -54 0 -54 16 0 8 -4 14 -9 14
-6 0 -7 -15 -4 -34 3 -19 1 -36 -6 -40 -7 -5 -11 3 -11 23 0 16 -4 33 -10 36
-5 3 -7 0 -5 -8 3 -7 2 -24 -3 -38 -9 -22 -10 -21 -17 18 -7 47 -14 56 -34 44
-10 -6 -9 -10 3 -14 9 -4 16 -13 16 -22 0 -13 -4 -14 -21 -5 -29 16 -59 6
-114 -36 -26 -19 -49 -33 -52 -30 -11 11 115 125 148 134 50 15 95 14 134 -3z
m1889 -1 c19 -18 20 -28 6 -55 -21 -39 -90 -16 -90 30 0 16 30 41 50 41 10 0
26 -7 34 -16z m649 2 c52 -21 87 -70 87 -120 0 -70 -49 -107 -89 -67 -22 22
-27 41 -12 41 6 0 13 -4 16 -10 6 -9 55 -15 55 -6 0 2 3 11 6 19 4 11 -3 14
-32 13 -44 -1 -59 21 -17 26 22 2 28 9 30 28 1 14 0 18 -3 8 -6 -21 -24 -24
-25 -5 0 10 -2 10 -6 0 -9 -24 -23 -13 -23 17 0 17 -4 30 -8 30 -4 0 -6 -15
-4 -34 2 -18 -1 -37 -7 -40 -7 -5 -11 5 -12 26 l-1 33 -11 -35 c-8 -27 -11
-30 -14 -15 -11 60 -14 65 -36 65 -20 -1 -20 -2 -4 -11 9 -5 17 -17 17 -26 0
-13 -3 -14 -12 -5 -7 7 -21 12 -33 12 -25 0 -115 -55 -115 -70 0 -5 -4 -10
-10 -10 -22 0 -7 27 43 75 72 70 148 91 220 61z m-1345 -49 c4 -20 -25 -34
-40 -19 -15 15 -1 44 19 40 10 -2 19 -11 21 -21z m-2285 -29 c15 -23 1 -48
-27 -48 -33 0 -46 38 -20 57 21 15 34 13 47 -9z m2537 7 c6 -8 10 -22 8 -32
-4 -24 -47 -24 -62 0 -9 15 -7 21 8 33 25 18 31 18 46 -1z m-1911 -5 c165 -27
282 -148 328 -337 24 -103 21 -277 -7 -378 -36 -128 -37 -142 -5 -175 24 -25
26 -32 15 -45 -11 -13 -62 -15 -380 -15 -286 0 -367 -3 -367 -12 0 -7 -4 -22
-8 -33 -7 -16 -6 -18 6 -7 32 30 109 3 109 -39 0 -29 -19 -32 -30 -5 -7 20
-17 26 -39 26 -31 0 -53 -24 -65 -72 -8 -34 -22 -36 -32 -5 -11 37 -25 49 -41
36 -19 -16 -27 -5 -13 20 9 18 8 21 -11 21 -12 0 -31 -8 -42 -17 -19 -17 -20
-17 -15 5 8 30 -8 28 -28 -3 -14 -21 -15 -30 -5 -52 14 -30 8 -41 -14 -23 -43
36 2 118 71 127 33 4 45 1 72 -22 29 -25 32 -25 38 -8 3 10 10 28 15 41 l9 22
-113 0 c-61 0 -118 4 -126 9 -25 16 -3 40 54 56 30 9 59 25 65 35 5 10 10 141
10 305 2 286 1 287 -21 312 -28 29 -31 26 99 88 125 60 152 58 97 -7 -22 -26
-25 -38 -25 -114 0 -47 4 -83 9 -80 11 7 57 -42 48 -51 -4 -3 -18 4 -32 17
l-25 23 0 -232 c0 -147 4 -240 11 -253 13 -25 72 -50 96 -41 23 8 53 33 53 45
0 13 -23 9 -65 -12 -45 -23 -45 -23 -45 -12 0 15 63 45 92 44 35 -1 48 27 73
150 13 64 16 115 12 223 -5 146 -21 219 -56 265 -16 20 -21 22 -35 11 -21 -17
-21 -80 -1 -87 19 -8 19 -38 0 -54 -22 -18 -65 12 -67 48 -3 52 3 77 28 114
l24 38 -39 19 c-101 52 -200 48 -267 -11 -29 -25 -34 -37 -34 -73 0 -30 -5
-45 -16 -49 -28 -11 -36 5 -32 61 5 61 34 99 103 136 57 31 175 30 269 -2 l68
-23 41 22 c36 20 81 36 112 39 6 0 39 -4 74 -9z m2613 -18 c230 -78 339 -418
238 -740 -26 -82 -25 -95 5 -128 58 -62 48 -64 -369 -64 -203 0 -367 -3 -363
-6 3 -3 2 -16 -3 -29 -8 -22 -7 -22 19 -12 40 15 79 2 87 -29 9 -37 -12 -55
-25 -21 -7 19 -18 27 -33 27 -34 0 -48 -13 -63 -56 -17 -49 -33 -55 -42 -14
-5 29 -9 31 -34 26 -28 -5 -40 6 -19 19 6 3 10 10 10 16 0 15 -33 10 -59 -8
-23 -16 -24 -16 -19 5 8 30 -8 28 -28 -3 -14 -21 -15 -30 -5 -52 14 -31 9 -39
-13 -18 -43 44 14 125 88 125 13 0 38 -12 55 -26 l30 -25 16 37 c8 20 15 38
15 40 0 2 -49 4 -109 4 -116 0 -141 4 -141 25 0 14 10 19 80 44 28 10 49 25
57 41 9 18 13 99 13 297 l0 271 -25 30 c-30 36 -32 34 92 96 124 62 153 60 98
-6 -22 -26 -25 -38 -25 -114 0 -56 4 -83 10 -79 6 4 24 -8 40 -25 16 -17 34
-29 39 -26 18 11 71 -17 90 -47 39 -66 34 -159 -14 -264 -23 -51 -23 -53 -4
-53 30 0 22 -17 -13 -29 -18 -7 -50 -23 -70 -36 -21 -14 -40 -25 -43 -25 -12
0 -4 35 13 53 13 14 17 35 16 85 -2 60 0 64 12 47 13 -17 16 -18 24 -5 5 8 12
34 16 58 3 23 11 42 16 42 13 0 1 -67 -23 -139 -11 -30 -17 -56 -15 -59 14
-13 79 169 69 194 -3 8 -16 14 -29 14 -19 0 -24 5 -24 25 0 29 6 31 26 10 17
-17 34 -20 34 -6 0 20 -31 33 -66 27 -32 -6 -34 -5 -26 11 5 10 7 24 5 31 -3
6 0 12 6 12 6 0 11 -4 11 -9 0 -5 14 -11 30 -13 33 -5 38 3 15 22 -22 18 -62
15 -85 -5 -27 -24 -35 -14 -17 22 14 27 13 29 -14 51 l-29 24 0 -229 c0 -255
3 -269 63 -292 35 -13 40 -13 64 6 56 41 35 58 -30 23 -41 -22 -47 -24 -47
-12 0 14 62 44 94 46 29 1 32 5 53 66 47 144 48 391 2 515 -24 64 -42 83 -64
65 -22 -19 -19 -77 5 -90 17 -9 18 -14 8 -35 -14 -30 -31 -32 -58 -5 -30 30
-27 106 5 150 l25 35 -22 17 c-23 17 -120 48 -150 48 -9 0 -39 -8 -67 -17 -67
-21 -104 -63 -99 -110 3 -26 -1 -37 -14 -44 -28 -15 -38 -2 -38 45 0 74 63
143 154 167 52 14 144 5 227 -22 l63 -21 40 23 c22 12 53 26 70 30 42 10 130
1 188 -19z m-1966 3 c3 -8 3 -19 -1 -25 -10 -16 -35 7 -28 26 7 18 22 18 29
-1z m-290 -42 c26 -28 31 -83 7 -90 -7 -3 -9 4 -6 18 4 15 3 20 -5 15 -8 -5
-12 2 -13 21 0 15 -3 22 -6 15 -4 -10 -9 -9 -24 4 -12 11 -19 13 -19 5 0 -8
-7 -10 -20 -6 -10 3 -28 1 -39 -4 -31 -17 -35 5 -5 28 39 31 98 28 130 -6z
m154 6 c0 -5 -7 -9 -15 -9 -15 0 -20 12 -9 23 8 8 24 -1 24 -14z m2386 -4 c18
-19 24 -34 22 -57 -2 -17 -8 -33 -15 -35 -7 -3 -9 4 -6 18 5 17 3 20 -7 14
-10 -6 -12 -3 -8 13 4 12 2 25 -3 28 -5 3 -9 0 -9 -7 0 -7 -8 -5 -20 6 -13 11
-20 14 -20 6 0 -8 -7 -10 -20 -6 -10 3 -28 1 -40 -5 -29 -15 -27 14 2 34 35
25 94 20 124 -9z m-2349 -29 c-4 -9 -11 -16 -17 -16 -11 0 -14 33 -3 44 11 10
26 -11 20 -28z m1055 -26 c-30 -52 -28 -66 13 -111 42 -47 45 -80 13 -157 -20
-49 -21 -56 -8 -100 26 -90 5 -164 -59 -208 -19 -13 -38 -24 -41 -24 -3 0 -14
13 -23 29 -17 29 -17 31 3 63 27 44 25 84 -6 125 -38 51 -41 92 -10 145 14 25
26 56 26 69 1 24 1 24 16 4 10 -13 13 -31 10 -52 -3 -18 -9 -49 -12 -68 -4
-25 0 -51 16 -87 21 -50 22 -91 4 -145 -6 -16 -5 -16 9 -3 9 8 22 36 28 62 11
41 11 54 -4 95 -23 66 -21 103 8 143 14 19 25 39 25 45 0 7 -18 31 -41 54 -48
48 -47 67 3 138 22 31 35 40 42 33 8 -8 4 -22 -12 -50z m-832 16 c0 -13 9 -35
20 -49 52 -66 48 -99 -23 -195 -24 -33 -49 -81 -56 -107 -11 -42 -33 -66 -48
-51 -3 3 6 46 22 96 42 139 21 211 -76 261 -40 20 -46 33 -30 58 8 12 18 10
57 -15 63 -38 98 -105 98 -182 l0 -54 23 28 c38 47 39 68 4 121 -33 49 -37 72
-20 104 12 24 29 16 29 -15z m-382 -1043 l-21 -23 -527 0 c-518 0 -528 0 -554
21 l-26 20 0 190 c0 119 4 189 10 189 6 0 10 -70 10 -190 0 -177 1 -190 19
-200 13 -6 202 -10 544 -10 476 0 526 2 538 17 11 13 15 116 19 537 l5 521 3
-524 2 -525 -22 -23z m96 1043 c19 -16 24 -26 17 -31 -15 -9 -61 21 -61 40 0
20 10 18 44 -9z m2476 -486 c0 -281 -4 -499 -10 -519 -18 -63 6 -60 -573 -61
l-528 0 -24 25 c-25 24 -25 26 -25 210 0 117 4 185 10 185 6 0 10 -70 10 -190
0 -177 1 -190 19 -200 13 -6 202 -10 544 -10 476 0 526 2 538 17 11 13 15 113
17 537 2 336 6 516 12 506 6 -9 10 -210 10 -500z m-2400 129 c0 -204 -3 -308
-10 -304 -6 4 -10 116 -10 304 0 262 3 311 17 311 2 0 3 -140 3 -311z m-66
285 c14 -5 16 -42 16 -303 l0 -298 -25 -23 -25 -23 0 320 c0 277 3 333 16 333
1 0 9 -3 18 -6z m171 -184 c-3 -14 -8 -56 -12 -95 -8 -103 -36 -130 -48 -47
-4 32 -1 61 9 91 20 55 20 92 1 117 -8 10 -14 33 -14 49 0 28 2 25 35 -30 24
-42 33 -67 29 -85z m-1435 65 c-10 -12 -10 -15 0 -15 9 0 7 -6 -5 -20 -15 -16
-16 -22 -5 -35 11 -14 16 -13 42 3 16 11 35 30 42 43 15 31 49 36 74 11 10
-10 28 -18 40 -18 12 1 21 -3 21 -9 0 -5 -8 -10 -19 -9 -12 0 -21 -9 -25 -25
-11 -42 -34 -61 -77 -61 -22 0 -48 5 -58 10 -27 15 -52 -23 -39 -58 12 -32 2
-43 -17 -18 -14 19 -14 19 -14 -4 0 -13 7 -32 17 -42 22 -25 8 -36 -17 -13
-11 10 -20 13 -20 7 0 -17 56 -52 85 -52 15 0 24 -4 20 -10 -9 -15 -53 -12
-80 6 -28 18 -29 16 -15 -20 12 -32 81 -56 105 -36 20 17 32 5 14 -16 -9 -11
-25 -15 -51 -12 -43 4 -46 -12 -5 -26 60 -21 119 34 99 92 -5 15 -18 29 -32
32 -20 5 -21 7 -7 18 35 30 84 -32 72 -89 -10 -42 -59 -79 -105 -79 -77 0
-141 105 -124 204 7 47 35 106 58 125 14 12 14 16 -4 38 -24 31 -25 56 -4 77
21 22 52 22 34 1z m2541 1 c-9 -11 -9 -15 0 -18 7 -2 6 -8 -5 -17 -13 -11 -17
-11 -22 3 -9 23 2 46 22 46 13 0 14 -3 5 -14z m147 -14 c11 -11 27 -18 38 -18
10 1 19 -3 19 -9 0 -5 -8 -10 -17 -9 -11 0 -18 -7 -18 -16 0 -10 -9 -29 -21
-44 -16 -20 -29 -26 -60 -26 -33 0 -39 -3 -39 -22 0 -30 -14 -12 -16 20 -1 26
1 27 50 27 46 0 51 2 60 27 5 15 7 30 4 33 -9 9 -91 -25 -116 -48 -23 -22 -24
-22 -38 -3 -18 26 -18 42 1 26 11 -9 20 -8 45 10 16 12 30 28 30 35 0 15 27
34 48 35 6 0 20 -8 30 -18z m-1103 -98 c-4 -22 -1 -48 5 -65 18 -42 -5 -71
-80 -99 -70 -26 -84 -46 -77 -108 7 -64 55 -120 117 -137 19 -5 10 7 -37 52
-54 50 -63 64 -63 93 0 36 14 69 25 59 3 -3 18 -30 33 -60 32 -63 46 -71 49
-26 2 26 8 74 12 96 1 2 10 -4 20 -13 17 -16 19 -27 14 -86 -4 -45 -2 -69 6
-74 6 -4 11 -23 11 -42 l0 -34 -53 0 c-104 0 -192 85 -191 185 2 79 19 105 99
146 69 35 70 36 67 72 -3 26 2 41 17 56 29 29 34 26 26 -15z m-1053 -31 c62
-58 54 -178 -20 -325 -2 -5 6 -8 17 -8 32 0 25 -17 -11 -29 -18 -7 -50 -23
-70 -36 -21 -14 -40 -25 -43 -25 -11 0 -4 38 9 49 18 15 26 71 16 115 -8 35 5
52 16 21 11 -29 23 -15 34 41 7 32 16 52 21 47 9 -9 -11 -106 -36 -168 l-16
-40 20 23 c24 28 64 144 59 174 -2 15 -11 24 -24 26 -12 2 -24 12 -27 22 -7
27 2 31 29 13 29 -18 43 -11 23 13 -10 12 -23 14 -51 10 -35 -6 -51 5 -28 19
5 3 7 12 3 20 -3 8 0 15 6 15 6 0 11 -4 11 -9 0 -5 14 -11 30 -13 33 -5 38 3
15 22 -22 18 -62 15 -85 -5 -26 -23 -37 -12 -22 20 23 50 76 53 124 8z m1998
8 c0 -11 -4 -22 -9 -25 -11 -7 -23 22 -15 35 9 16 24 10 24 -10z m-2480 -81
c0 -40 -4 -70 -10 -70 -6 0 -10 30 -10 70 0 40 4 70 10 70 6 0 10 -30 10 -70z
m121 24 c17 -21 0 -49 -31 -49 -31 0 -48 28 -31 49 8 9 21 16 31 16 10 0 23
-7 31 -16z m2544 5 c4 -5 4 -21 1 -35 -5 -17 -13 -24 -31 -24 -29 0 -47 27
-34 52 11 20 54 24 64 7z m-721 -25 c6 -16 8 -16 24 0 10 9 27 16 36 16 16 0
16 -3 -4 -32 -43 -66 -52 -96 -41 -147 9 -39 8 -48 -6 -59 -28 -20 -48 9 -46
66 6 141 20 200 37 156z m486 6 c0 -5 -5 -10 -11 -10 -5 0 -7 5 -4 10 3 6 8
10 11 10 2 0 4 -4 4 -10z m97 -52 c-3 -8 -6 -5 -6 6 -1 11 2 17 5 13 3 -3 4
-12 1 -19z m-52 3 c3 -5 1 -12 -5 -16 -5 -3 -10 1 -10 9 0 18 6 21 15 7z m-41
-67 c3 -50 1 -55 -11 -39 -13 19 -18 87 -6 98 11 12 15 1 17 -59z m196 16 c19
-36 11 -71 -25 -107 -29 -29 -40 -34 -71 -31 -21 2 -39 8 -41 14 -2 6 10 8 31
6 61 -7 104 56 76 109 -6 10 -17 19 -25 19 -18 0 -20 17 -2 23 17 6 45 -10 57
-33z m-464 -14 c-4 -17 2 -34 24 -61 38 -48 54 -104 40 -140 -5 -14 -10 -29
-10 -33 0 -14 90 83 101 110 12 30 29 38 29 13 0 -20 12 -19 44 6 26 20 46 19
46 -4 0 -7 -35 -35 -77 -62 -94 -60 -149 -108 -170 -148 l-15 -29 34 25 c18
13 58 37 88 51 64 32 100 64 126 112 33 61 57 30 30 -40 -23 -60 -60 -90 -141
-116 -38 -12 -87 -33 -107 -47 -31 -21 -37 -31 -40 -66 -2 -30 -8 -43 -20 -45
-27 -5 -23 60 8 160 35 107 35 151 1 209 -31 52 -34 90 -11 113 22 22 27 20
20 -8z m354 4 c0 -5 -9 -10 -20 -10 -11 0 -20 5 -20 10 0 6 9 10 20 10 11 0
20 -4 20 -10z m-40 -51 c11 -8 12 -12 3 -16 -7 -2 -13 -11 -13 -19 0 -16 -16
-19 -25 -4 -7 12 3 50 13 50 4 0 14 -5 22 -11z m80 -14 c-13 -16 -50 -21 -50
-7 0 8 52 31 59 25 2 -1 -2 -9 -9 -18z m-400 -78 c0 -4 -20 -32 -45 -63 -64
-78 -87 -127 -83 -177 l3 -42 23 25 c14 15 22 36 22 60 0 32 14 60 30 60 3 0
7 -24 8 -54 2 -49 0 -56 -29 -80 -17 -14 -35 -26 -40 -26 -5 0 -14 -11 -19
-25 -13 -35 -41 -31 -68 11 -13 19 -39 44 -58 56 -18 11 -34 24 -34 29 0 21
43 6 80 -27 l40 -36 0 64 c0 69 -7 81 -73 122 -15 9 -25 21 -22 26 13 21 50 8
86 -31 l38 -41 31 68 c17 38 43 81 57 96 24 25 27 26 39 10 7 -9 14 -20 14
-25z m-2052 -29 c18 -18 14 -46 -7 -58 -11 -5 -22 -10 -25 -10 -8 0 -36 31
-36 40 0 13 30 40 44 40 6 0 17 -5 24 -12z m2540 0 c29 -29 -4 -76 -42 -62
-30 11 -13 74 19 74 6 0 16 -5 23 -12z m-1349 -33 c16 -8 43 -38 61 -67 54
-88 100 -129 77 -68 -8 22 -8 33 0 41 8 8 15 3 27 -20 17 -32 21 -34 120 -51
54 -9 110 -42 124 -72 2 -5 8 -8 13 -8 12 0 0 29 -27 67 -30 39 -30 43 0 43
24 0 30 -9 55 -89 9 -28 8 -38 -3 -49 -12 -12 -21 -9 -61 22 -54 41 -94 46
-165 21 -45 -16 -170 -17 -170 -2 0 5 13 14 29 20 l30 11 -35 23 c-20 14 -46
48 -64 81 l-29 57 -1 -112 c0 -105 1 -113 22 -127 20 -14 89 -16 553 -16 400
0 534 3 543 12 8 8 12 45 12 100 0 52 4 88 10 88 6 0 10 -37 10 -90 0 -143 57
-130 -570 -130 -560 0 -577 1 -594 45 -10 28 -7 223 4 230 16 10 1 25 -26 25
-23 0 -31 10 -17 23 11 11 42 8 72 -8z m505 -186 c-7 -60 -6 -61 14 -50 24 13
62 15 62 4 -1 -9 -70 -43 -87 -43 -15 0 -23 25 -23 75 0 53 8 75 27 75 11 0
13 -11 7 -61z m-934 6 c0 -63 -57 -135 -107 -135 -71 0 -123 53 -103 105 14
38 37 32 32 -9 -5 -41 25 -66 78 -65 l35 0 -34 12 c-19 7 -37 18 -39 26 -4 11
0 12 14 6 34 -15 78 -11 82 6 2 12 -3 15 -21 12 -14 -3 -29 2 -37 12 -12 15
-11 16 12 10 21 -5 30 -2 43 19 22 33 45 34 45 1z m2540 -2 c-1 -48 -34 -108
-69 -122 -89 -37 -186 55 -120 115 l21 19 -7 -37 c-9 -48 19 -78 73 -77 l37 1
-34 12 c-19 7 -37 18 -39 26 -4 10 0 11 14 5 33 -14 78 -11 82 5 2 11 -5 16
-24 15 -15 0 -29 6 -32 14 -3 9 1 11 16 7 16 -5 25 0 38 19 22 34 44 33 44 -2z
m-2799 -42 c-12 -42 -52 -81 -81 -81 -28 0 -70 39 -70 66 0 34 16 30 23 -6 5
-21 14 -31 32 -36 30 -8 44 1 27 18 -18 18 -15 24 15 23 14 0 28 6 30 13 3 6
-3 12 -12 12 -14 0 -13 4 6 24 32 33 46 18 30 -33z m1704 43 c13 -9 29 -13 34
-10 15 10 24 -13 11 -29 -15 -18 -56 -20 -66 -4 -4 7 -24 9 -50 6 -54 -6 -63
5 -28 32 32 25 66 27 99 5z m845 -17 c0 -29 -33 -83 -60 -97 -12 -7 -33 -9
-46 -6 -30 8 -59 50 -49 73 6 15 9 12 17 -14 6 -23 16 -35 34 -39 30 -8 42 2
26 18 -18 18 -14 26 12 21 26 -5 46 15 26 27 -9 6 -8 12 6 27 23 24 34 20 34
-10z m-2202 14 c8 -5 12 -21 10 -37 -3 -25 -7 -29 -33 -29 -26 0 -30 4 -33 29
-3 27 10 46 33 46 6 0 16 -4 23 -9z m2546 -7 c19 -19 20 -25 3 -49 -20 -26
-67 -13 -67 18 0 43 35 60 64 31z m-2440 -40 c19 -18 19 -20 6 -45 -16 -29
-58 -25 -66 6 -11 45 29 71 60 39z m2540 3 c21 -16 18 -45 -6 -61 -35 -22 -74
27 -48 59 15 18 31 19 54 2z"/>
<path d="M4080 2259 c-61 -25 -96 -102 -88 -196 l3 -38 126 -5 126 -5 -16 25
c-8 14 -35 47 -58 74 -47 52 -58 80 -51 126 5 32 -1 35 -42 19z m20 -130 c7
-13 32 -41 54 -61 49 -45 31 -50 -38 -12 -74 41 -91 85 -53 133 9 11 13 8 18
-11 3 -13 12 -35 19 -49z"/>
<path d="M4171 2231 c9 -43 29 -81 40 -81 4 0 12 14 18 30 14 40 35 40 27 -1
-4 -20 1 -43 14 -69 22 -43 26 -90 8 -90 -6 0 -9 -2 -6 -5 3 -3 17 -1 32 4 25
10 26 14 26 78 0 103 -39 155 -127 169 l-41 6 9 -41z"/>
<path d="M4033 1950 c-15 -6 -23 -18 -23 -34 0 -29 20 -36 108 -36 59 0 62 1
62 24 0 13 3 31 6 40 5 14 -4 16 -62 15 -38 0 -79 -4 -91 -9z m101 -52 c-3 -5
-12 -4 -20 3 -7 6 -11 15 -8 21 3 5 12 4 20 -3 7 -6 11 -15 8 -21z"/>
<path d="M4215 1920 c0 -39 0 -40 37 -40 20 0 48 4 62 10 33 12 35 49 4 58
-33 8 -33 7 -30 -27 3 -22 -1 -31 -12 -31 -15 0 -32 35 -28 58 2 6 -5 12 -15
12 -15 0 -18 -8 -18 -40z"/>
<path d="M2830 2224 c-8 -3 -21 -7 -28 -10 -8 -2 1 -21 27 -54 117 -148 147
-340 96 -617 -10 -51 -15 -99 -12 -108 5 -11 22 -15 71 -15 60 0 66 2 86 30
65 91 110 376 80 495 -6 22 -18 57 -27 79 -14 32 -18 35 -24 20 -13 -32 -10
-75 6 -90 35 -35 8 -77 -47 -72 -40 4 -86 62 -67 85 9 10 9 20 1 38 -9 20 -9
25 3 25 21 0 7 30 -19 40 l-21 9 22 7 c13 3 20 10 17 15 -8 14 -36 10 -56 -8
-25 -22 -23 2 2 27 26 26 54 25 80 -2 23 -24 26 -71 9 -132 -18 -65 8 -108 55
-90 17 7 23 44 6 44 -5 0 -10 -7 -10 -15 0 -8 -4 -15 -10 -15 -11 0 -13 80 -4
129 4 18 13 31 21 31 34 0 -51 101 -110 131 -39 21 -120 33 -147 23z m250
-381 c0 -20 -3 -24 -11 -16 -7 7 -9 19 -6 27 10 24 17 19 17 -11z m23 -62 c23
-39 21 -96 -3 -136 -24 -40 -85 -82 -128 -91 -41 -8 -42 9 -2 26 17 7 30 19
30 26 0 8 5 14 10 14 6 0 10 -5 10 -11 0 -5 5 -7 10 -4 6 3 10 15 10 26 0 10
7 19 15 19 18 0 18 5 5 31 -8 14 -7 19 2 19 7 1 2 10 -11 21 -29 24 -21 37 14
21 31 -14 33 0 4 29 -17 17 -28 20 -62 15 -36 -6 -39 -5 -26 10 34 41 93 33
122 -15z m-63 -70 c0 -12 -54 -51 -69 -51 -18 0 -12 13 17 37 28 23 52 30 52
14z"/>
<path d="M5370 2223 c-8 -2 -21 -6 -28 -9 -9 -3 -2 -17 23 -46 48 -57 101
-168 116 -246 14 -77 7 -261 -15 -386 -9 -49 -14 -96 -12 -103 8 -21 129 -18
148 5 47 53 86 198 95 353 6 109 -2 164 -34 238 -13 32 -16 34 -23 16 -14 -34
-11 -82 5 -89 8 -3 15 -16 15 -29 0 -59 -80 -64 -117 -8 -17 25 -20 37 -12 47
6 7 8 23 4 35 -4 13 -2 24 5 29 16 10 4 29 -24 40 -21 8 -21 8 4 18 23 9 23
11 6 18 -10 4 -27 2 -37 -4 -27 -17 -31 -15 -19 8 13 25 52 35 79 21 29 -16
39 -66 26 -131 -6 -30 -9 -65 -7 -77 6 -41 72 -41 72 1 -1 19 -2 19 -11 4 -22
-38 -32 -19 -27 54 4 50 10 75 22 83 14 11 13 16 -13 53 -63 86 -165 131 -241
105z m252 -388 c-12 -22 -27 -2 -18 22 5 12 10 13 17 6 7 -7 8 -17 1 -28z m23
-51 c22 -34 21 -96 -2 -136 -24 -41 -87 -86 -133 -95 -32 -6 -34 -5 -21 10 7
9 19 17 27 17 7 0 19 10 25 22 8 14 14 18 17 10 7 -21 22 -13 22 13 0 16 6 25
15 25 18 0 20 21 3 38 -9 9 -9 12 2 12 9 0 8 5 -5 20 -22 24 -12 39 15 22 27
-16 26 2 -1 29 -16 16 -29 20 -56 16 -39 -7 -41 10 -3 30 30 15 73 0 95 -33z
m-65 -73 c0 -13 -50 -51 -66 -51 -21 0 -17 12 14 37 28 23 52 30 52 14z"/>
<path d="M2280 1991 c0 -6 9 -11 20 -11 29 0 24 -17 -7 -25 -38 -9 -75 -34
-68 -45 3 -5 27 -8 53 -7 l47 2 0 45 c0 39 -3 45 -22 48 -13 2 -23 -1 -23 -7z"/>
<path d="M4820 1990 c0 -5 12 -10 26 -10 14 0 23 4 19 10 -3 6 -15 10 -26 10
-10 0 -19 -4 -19 -10z"/>
<path d="M1120 774 c18 -47 12 -111 -13 -137 -27 -30 -94 -37 -387 -38 -163
-1 -202 2 -235 16 -27 12 -78 19 -157 22 -116 4 -118 4 -118 -18 0 -26 35 -85
58 -98 15 -9 15 -11 -3 -33 -43 -49 -66 -90 -61 -105 5 -13 17 -15 74 -9 37 4
74 7 82 6 46 -3 84 2 127 17 41 16 86 18 318 18 247 0 272 -2 298 -19 23 -16
27 -25 27 -66 0 -27 -4 -60 -10 -74 l-10 -26 91 0 c77 0 90 2 80 14 -8 9 -11
43 -9 93 l3 78 143 3 142 3 0 -81 c0 -66 -3 -83 -20 -100 -20 -20 -20 -20 3
-34 42 -27 152 -93 175 -105 l23 -12 -18 33 c-15 27 -18 57 -18 168 l0 135 48
3 c56 4 67 -11 43 -57 -9 -16 -16 -32 -16 -36 0 -3 22 -5 48 -5 49 0 49 0 62
43 7 23 17 45 24 49 6 4 37 8 68 8 54 0 59 -2 73 -30 8 -16 15 -38 15 -50 0
-18 6 -20 55 -20 l54 0 -19 44 c-10 24 -16 47 -13 50 4 3 26 6 49 6 37 0 47
-5 66 -31 33 -45 87 -69 153 -69 71 0 114 18 152 65 27 33 35 36 62 30 33 -7
45 -30 35 -69 -6 -25 -5 -26 46 -26 50 0 51 1 49 28 -4 59 -2 62 47 62 38 0
49 -5 70 -29 34 -40 101 -61 198 -61 66 1 78 3 65 13 -22 17 -53 66 -46 74 9
9 304 9 313 0 11 -11 8 -77 -5 -90 -11 -11 4 -23 91 -76 l37 -22 -10 29 c-5
16 -9 60 -7 98 l3 69 85 3 c47 2 109 0 138 -3 l54 -7 -4 -44 -3 -44 145 0 146
0 22 45 c16 32 28 45 43 45 19 0 21 -5 17 -45 l-3 -45 145 0 145 0 20 42 c20
42 60 66 90 54 12 -4 12 -12 -5 -51 l-19 -45 48 0 c47 0 48 1 59 39 17 54 31
63 99 59 55 -3 59 -5 75 -38 9 -19 15 -41 13 -48 -3 -8 11 -12 50 -12 l54 0
-19 45 c-15 36 -17 47 -7 51 7 2 71 3 143 2 l129 -3 -1 -47 0 -48 50 0 51 0
-3 45 -4 45 96 0 96 0 0 -38 c0 -21 -5 -43 -11 -49 -8 -8 6 -22 52 -51 35 -23
65 -40 66 -38 1 1 -2 19 -8 39 -5 21 -9 61 -7 90 l3 52 39 3 c54 5 63 -8 39
-57 l-20 -41 51 0 51 0 15 48 16 47 66 3 c65 3 67 2 83 -27 8 -17 15 -39 15
-51 0 -18 6 -20 55 -20 l54 0 -19 42 c-10 24 -16 46 -12 50 4 3 29 4 55 1 l49
-6 -4 -43 -3 -44 50 0 50 0 0 42 0 43 44 0 c39 0 45 -3 62 -35 10 -19 20 -43
23 -52 3 -10 41 -36 86 -58 l81 -41 -25 48 c-14 27 -38 68 -55 92 -16 25 -28
48 -25 53 6 10 40 10 84 2 31 -7 32 -8 28 -50 l-3 -44 51 0 52 0 -6 45 c-4 40
-2 45 16 45 24 0 76 -65 68 -86 -4 -9 3 -18 17 -23 12 -5 59 -25 105 -45 l83
-36 -32 48 c-18 26 -50 68 -70 93 -21 25 -36 49 -32 53 8 8 61 8 103 0 31 -7
32 -8 27 -50 l-5 -44 144 0 144 0 22 45 c19 39 26 45 62 50 23 4 64 5 91 3
l50 -3 3 -38 c2 -21 -2 -44 -8 -52 -8 -10 3 -21 52 -51 85 -50 85 -50 69 -31
-9 11 -14 45 -15 95 l-1 77 320 5 320 5 65 31 c114 55 114 54 18 100 l-83 39
-257 3 -258 3 0 45 0 44 -170 0 -170 0 0 -45 0 -45 -40 0 -40 0 0 45 0 45
-159 0 -159 0 5 -44 5 -43 -44 -7 c-24 -4 -54 -3 -67 2 l-22 8 31 42 30 42
-64 0 c-58 0 -64 -2 -70 -22 -10 -40 -51 -82 -71 -75 -14 6 -17 15 -13 52 l6
45 -52 0 -52 0 4 -35 c6 -52 -1 -62 -42 -57 -29 3 -39 11 -52 37 -22 47 -50
55 -187 55 l-122 0 4 -51 3 -52 -38 6 c-22 4 -65 7 -96 7 -56 0 -57 1 -68 35
-6 19 -9 43 -6 53 6 17 -28 36 -168 91 -5 2 1 -7 13 -20 31 -33 36 -66 19
-113 l-15 -41 -84 -6 c-46 -4 -88 -4 -93 -2 -4 3 -6 25 -3 49 l5 44 -69 0
c-53 0 -69 -3 -69 -14 0 -8 -12 -29 -27 -47 l-27 -32 -28 34 c-15 18 -28 39
-28 46 0 9 -19 13 -68 13 l-68 0 0 -46 1 -46 -175 2 c-153 0 -177 3 -188 18
-20 26 -26 63 -12 72 15 9 12 11 -89 55 l-82 35 20 -29 c25 -34 26 -69 7 -116
l-15 -35 -85 0 -86 0 0 45 0 45 -158 0 -157 0 3 -44 4 -44 -44 -7 c-23 -3 -86
-5 -138 -3 l-95 3 0 48 0 47 -50 0 -51 0 4 -35 c6 -50 -2 -63 -32 -58 -23 5
-26 10 -26 49 l0 44 -160 0 -160 0 0 -45 0 -45 -160 0 c-110 0 -160 3 -160 11
0 6 15 26 34 45 l34 34 -89 0 c-103 0 -143 -13 -200 -65 -29 -26 -48 -35 -75
-35 l-36 0 4 50 3 50 -52 0 -51 0 0 -45 c1 -25 -1 -46 -3 -48 -2 -1 -43 -1
-91 1 l-88 3 15 29 c8 16 25 36 37 44 21 15 16 16 -72 16 -106 0 -161 -18
-197 -64 -20 -25 -26 -26 -110 -26 l-89 0 -13 35 c-7 19 -10 43 -6 53 4 16 -9
25 -79 54 l-84 35 19 -31 c23 -37 24 -65 5 -111 l-15 -35 -95 0 -96 0 0 76 c0
41 5 84 10 95 10 18 6 19 -103 19 -113 0 -114 0 -111 -22 3 -16 -9 -38 -39
-71 l-43 -47 -43 50 c-29 35 -41 57 -38 71 5 18 -1 19 -109 19 l-114 0 10 -26z
m184 -11 c3 -10 30 -45 59 -77 l53 -59 52 62 c29 35 52 69 52 77 0 11 17 14
75 14 41 0 75 -3 75 -7 0 -5 -18 -28 -41 -51 -32 -36 -42 -42 -54 -32 -17 15
-9 34 11 26 8 -3 14 -1 14 4 0 13 -21 13 -40 0 -12 -8 -13 -13 -2 -30 11 -18
9 -26 -19 -66 -31 -46 -54 -56 -24 -11 14 21 14 25 1 30 -10 4 -26 -8 -46 -33
-37 -47 -57 -54 -109 -40 -28 7 -48 22 -70 52 -17 23 -31 48 -31 55 0 7 -4 13
-10 13 -15 0 -12 30 3 31 9 0 9 2 0 5 -14 6 -53 -13 -53 -25 0 -4 10 -13 23
-19 18 -9 19 -11 4 -11 -10 -1 -16 -5 -13 -10 9 -14 -24 -22 -45 -11 -14 8
-19 21 -19 51 0 37 2 40 22 33 20 -6 21 -5 9 9 -7 9 -17 14 -22 11 -5 -3 -9 2
-9 10 0 13 14 16 74 16 62 0 76 -3 80 -17z m716 -60 c0 -7 -6 -13 -12 -13 -8
0 -6 -5 4 -10 24 -14 54 -98 40 -112 -17 -17 0 -52 48 -106 9 -9 22 -30 29
-46 11 -27 10 -31 -11 -47 -22 -17 -23 -17 -28 -1 -3 9 -15 36 -28 59 -27 52
-28 61 -2 38 11 -10 20 -14 20 -8 0 5 -12 20 -26 34 -30 27 -78 125 -69 140
10 16 -27 10 -47 -8 -10 -9 -21 -13 -24 -10 -10 9 16 67 30 67 18 0 63 -44 59
-57 -2 -6 1 -14 6 -18 7 -4 11 5 11 24 0 25 -7 33 -45 52 -28 14 -42 26 -36
32 5 5 7 15 4 23 -4 10 5 9 36 -4 22 -9 41 -23 41 -29z m2737 16 c27 -10 27
-11 9 -25 -15 -10 -16 -14 -5 -14 20 0 44 -64 44 -120 0 -33 6 -51 23 -68 12
-12 22 -27 22 -33 0 -5 4 -8 8 -5 5 3 14 -11 20 -32 10 -32 9 -39 -5 -49 -20
-15 -37 -17 -28 -4 3 5 1 12 -5 16 -10 6 -50 79 -50 91 0 4 9 -1 20 -11 11
-10 20 -14 20 -8 0 5 -12 20 -26 34 -30 27 -78 125 -69 140 10 16 -27 10 -47
-8 -10 -9 -20 -14 -23 -11 -8 8 16 68 27 68 15 0 69 -41 64 -49 -3 -4 -1 -13
5 -21 6 -11 9 -7 9 17 0 26 -6 34 -37 50 -28 15 -38 27 -40 46 -2 24 1 26 17
17 10 -5 31 -15 47 -21z m1103 -16 c0 -7 -6 -13 -12 -13 -8 0 -7 -4 3 -10 23
-13 54 -99 41 -112 -11 -11 4 -68 18 -68 5 0 12 -9 15 -20 4 -11 10 -18 15
-15 4 3 15 -14 25 -37 16 -40 16 -43 -1 -55 -26 -19 -28 -18 -57 40 -33 63
-34 76 -6 51 22 -19 22 -19 11 2 -6 11 -18 27 -27 34 -23 19 -67 109 -61 125
8 22 -28 22 -46 0 -9 -11 -19 -17 -23 -14 -9 10 6 60 20 66 19 7 65 -26 65
-48 0 -10 5 -21 10 -24 11 -7 13 35 2 50 -4 6 -24 19 -45 30 -23 12 -35 25
-32 33 3 8 5 17 5 22 0 5 18 1 40 -8 22 -9 40 -23 40 -29z m-3367 -33 c-3 -10
-11 -25 -19 -31 -11 -9 -14 -8 -15 7 0 11 -3 14 -6 7 -2 -7 -17 -13 -31 -13
-15 0 -40 -7 -56 -15 -37 -19 -42 -19 -25 2 13 17 13 17 -13 0 -55 -35 -78
-13 -26 26 31 23 77 35 145 36 46 1 51 -1 46 -19z m234 2 c-20 -22 -23 -63 -4
-59 9 1 13 -31 15 -132 2 -116 1 -132 -12 -122 -10 8 -16 9 -21 1 -12 -20 -25
-10 -25 20 0 18 5 30 13 30 18 0 40 47 27 55 -6 4 -10 33 -10 66 0 46 -3 59
-15 59 -11 0 -15 12 -15 50 0 49 0 50 32 50 29 0 30 -1 15 -18z m373 7 c0 -32
-21 -47 -65 -47 -32 1 -55 -5 -75 -21 -33 -24 -39 -18 -12 12 16 19 16 20 -4
9 -11 -6 -26 -18 -34 -26 -13 -17 -50 -22 -50 -8 0 17 59 64 96 77 47 17 144
20 144 4z m600 2 c0 -6 -4 -12 -10 -16 -5 -3 -7 -12 -3 -20 4 -13 -11 -15 -96
-15 -122 0 -136 18 -18 23 80 3 79 4 -16 3 -78 0 -101 4 -114 17 -16 16 -9 17
120 17 79 0 137 -4 137 -9z m163 -11 c-3 -10 -11 -25 -19 -31 -20 -16 -17 -29
6 -29 18 0 20 -7 20 -64 0 -44 -5 -67 -15 -76 -8 -7 -15 -19 -15 -26 0 -8 -9
-14 -20 -14 -24 0 -28 35 -5 44 11 4 15 21 15 66 0 47 -3 60 -15 60 -11 0 -15
12 -15 45 0 45 0 45 34 45 29 0 33 -3 29 -20z m587 13 c0 -5 -7 -16 -15 -26
-12 -17 -26 -18 -119 -15 -99 3 -127 -2 -91 -16 10 -4 15 -20 15 -51 l0 -45
60 0 c33 0 60 -4 60 -10 0 -6 -28 -10 -65 -10 -37 0 -65 4 -65 10 0 6 -7 10
-15 10 -10 0 -15 11 -15 35 0 24 -5 35 -15 35 -11 0 -15 12 -15 45 l0 45 140
0 c77 0 140 -3 140 -7z m870 -44 c41 -48 43 -50 61 -33 11 10 29 33 40 51 18
29 26 33 65 33 49 0 52 -5 25 -37 -20 -24 -41 -30 -41 -12 0 5 -5 7 -10 4 -8
-5 -8 -11 0 -20 7 -9 5 -19 -10 -36 -11 -13 -20 -19 -19 -14 4 26 -3 26 -31 0
-16 -16 -30 -35 -30 -42 0 -7 -5 -13 -11 -13 -8 0 -7 -6 2 -17 12 -14 12 -16
-1 -11 -8 2 -15 11 -15 20 0 8 -17 29 -36 46 -20 18 -42 45 -49 62 -13 32 -35
42 -25 11 6 -19 -18 -36 -36 -25 -14 8 -11 54 4 55 10 0 10 2 0 6 -27 10 -11
23 30 23 40 0 47 -4 87 -51z m1043 20 c29 -29 30 -32 12 -42 -14 -7 -20 -7
-23 3 -4 10 -6 9 -13 -1 -6 -11 -11 -11 -21 -1 -7 7 -39 12 -79 12 -37 0 -71
5 -74 10 -3 6 -11 10 -18 10 -8 0 -8 -3 1 -12 20 -20 14 -28 -19 -28 -26 0
-30 3 -27 23 2 12 9 21 16 20 17 -4 15 8 -5 23 -15 11 0 13 100 14 l119 0 31
-31z m207 -3 c0 -19 -7 -41 -15 -50 -8 -8 -15 -19 -15 -25 0 -6 7 -11 15 -11
8 0 15 -9 15 -20 0 -37 21 -20 72 60 48 73 55 80 85 80 18 0 33 -5 33 -10 0
-16 -49 -90 -60 -90 -17 0 -11 17 16 49 14 17 20 29 12 26 -20 -8 -103 -142
-100 -161 3 -13 -1 -15 -15 -10 -10 4 2 -13 27 -38 24 -25 39 -46 32 -46 -15
0 -92 69 -92 82 0 5 -16 25 -35 44 -28 27 -35 41 -35 73 0 22 5 41 13 44 8 3
6 10 -8 21 -19 15 -18 15 18 16 36 0 37 -1 37 -34z m577 16 c-10 -10 -14 -22
-10 -26 5 -4 -43 -6 -104 -5 -62 1 -116 0 -120 -4 -3 -4 1 -7 9 -7 18 0 28
-32 24 -72 -3 -28 -3 -28 55 -28 33 0 59 -4 59 -10 0 -6 -27 -10 -61 -10 -67
0 -89 13 -89 53 0 14 -7 27 -15 31 -10 4 -15 20 -15 51 l0 45 142 0 c136 0
141 -1 125 -18z m423 3 c-8 -10 -30 -15 -64 -15 -28 0 -64 -7 -81 -16 -39 -20
-155 -18 -155 4 0 9 6 12 17 8 15 -6 15 -4 -2 14 l-18 20 158 0 c139 0 156 -2
145 -15z m-5938 -61 c11 -80 16 -89 17 -25 1 46 3 52 16 41 10 -9 15 -32 15
-76 0 -51 -3 -64 -18 -68 -16 -5 -17 -13 -9 -68 19 -146 19 -164 2 -178 -11
-9 -19 -10 -23 -3 -4 6 -17 13 -29 17 -31 10 -30 36 2 36 15 0 25 6 25 14 0 8
-11 17 -25 20 -18 5 -25 13 -25 30 0 24 24 41 41 30 5 -3 9 39 9 99 0 101 -1
104 -22 103 -20 -1 -23 5 -26 38 -3 38 10 60 33 53 6 -2 13 -30 17 -63z m1838
21 c10 -12 10 -19 2 -27 -17 -17 -15 -41 3 -34 11 4 15 -1 15 -19 0 -24 3 -25
60 -25 33 0 60 -4 60 -8 0 -8 -83 -6 -127 4 -13 2 -23 11 -23 19 0 8 -7 15
-15 15 -11 0 -15 12 -15 45 0 48 16 59 40 30z m4095 5 c-3 -5 -28 -10 -55 -10
-27 0 -52 5 -55 10 -4 6 17 10 55 10 38 0 59 -4 55 -10z m-123 -18 c-17 -5
-15 -29 3 -36 12 -4 15 -31 15 -153 -1 -132 -2 -146 -15 -129 -8 11 -15 28
-15 38 0 11 -5 15 -15 12 -10 -4 -15 0 -15 11 0 11 5 15 14 12 20 -8 24 17 18
106 -3 52 -9 77 -17 77 -7 0 -15 12 -18 26 -3 20 0 28 14 31 11 3 19 10 19 15
0 5 5 6 12 2 9 -6 9 -9 0 -12z m-6295 -12 c3 -11 9 -17 14 -14 5 3 9 -4 9 -15
0 -11 4 -23 10 -26 5 -3 8 -19 6 -35 -2 -17 1 -30 6 -30 6 0 8 8 6 18 -3 12 2
24 14 31 24 15 43 5 27 -15 -10 -12 -14 -12 -22 -2 -6 10 -8 9 -4 -4 7 -19
-27 -53 -42 -43 -6 3 -11 1 -11 -4 0 -6 3 -11 8 -11 4 0 8 -14 9 -30 2 -25 0
-28 -11 -18 -8 7 -12 16 -9 21 2 4 -1 7 -7 7 -7 0 -9 -8 -5 -19 5 -16 2 -18
-15 -14 -11 3 -20 9 -20 14 0 5 -9 18 -20 29 -11 11 -20 28 -20 38 0 14 -2 15
-10 2 -8 -13 -11 -12 -25 5 -11 14 -15 16 -14 5 4 -38 0 -44 -20 -26 -14 13
-21 14 -27 5 -5 -9 -11 -7 -21 6 -12 18 -13 18 -13 1 0 -14 -6 -17 -24 -14
-17 3 -27 0 -31 -11 -5 -12 -10 -9 -24 13 -15 22 -20 24 -24 12 -8 -19 -33
-21 -40 -3 -3 7 -6 5 -6 -5 -1 -25 -20 -22 -44 5 -13 14 -18 16 -14 5 8 -22
-34 -33 -49 -12 -7 8 -14 11 -15 5 -2 -5 -16 -12 -30 -16 -26 -6 -26 -6 -25
52 1 47 4 58 19 61 11 2 17 -3 18 -15 1 -17 2 -17 6 0 3 12 12 17 26 15 12 -1
28 1 35 5 16 11 34 -1 25 -16 -4 -7 5 -4 20 6 33 21 37 21 37 0 0 -15 1 -15
18 0 24 22 82 23 82 2 0 -8 4 -15 9 -15 5 0 11 7 15 15 8 23 94 20 126 -5 27
-20 50 -12 50 19 0 18 18 41 33 41 5 0 11 -9 14 -20z m4663 10 c0 -5 -5 -10
-11 -10 -5 0 -7 5 -4 10 3 6 8 10 11 10 2 0 4 -4 4 -10z m-5456 -16 c15 -14
16 -14 16 0 0 21 6 20 46 -5 19 -11 34 -16 34 -10 0 6 -7 11 -16 11 -9 0 -12
5 -8 12 5 8 13 5 24 -10 10 -12 20 -19 23 -16 3 3 4 -20 4 -51 -1 -42 -4 -53
-12 -42 -5 8 -21 18 -35 22 -14 4 -29 13 -33 19 -6 7 -7 4 -3 -6 3 -10 1 -18
-4 -18 -5 0 -6 -7 -3 -17 4 -10 2 -14 -4 -10 -6 4 -14 1 -16 -5 -5 -11 -10 24
-10 58 0 5 -12 8 -27 6 -34 -5 -86 37 -77 61 8 22 80 23 101 1z m896 -6 c0
-13 -23 -5 -28 10 -2 7 2 10 12 6 9 -3 16 -11 16 -16z m4258 -11 c2 -19 -1
-27 -12 -27 -11 0 -16 10 -16 31 0 38 24 35 28 -4z m-4422 0 c4 -4 -5 -7 -19
-7 -15 0 -27 4 -27 10 0 11 35 8 46 -3z m5283 4 c9 -6 11 -16 6 -27 -5 -13 -9
-15 -12 -6 -6 16 -23 16 -23 -1 0 -7 -9 -18 -20 -25 -11 -7 -20 -19 -20 -26 0
-8 -7 -21 -15 -29 -12 -13 -12 -17 5 -32 19 -18 20 -17 16 13 -4 41 6 41 26
-2 12 -23 13 -37 6 -44 -7 -7 -2 -19 16 -37 30 -30 30 -30 -1 -39 -17 -5 -23
-2 -29 16 -4 12 -18 39 -31 60 -14 20 -25 43 -27 51 -1 8 -8 22 -15 31 -9 10
-9 16 -3 16 17 0 82 60 82 76 0 16 18 18 39 5z m-5079 -21 c8 -15 17 -19 30
-15 19 6 90 -21 90 -34 -1 -29 -84 -46 -112 -23 -8 6 -18 9 -21 6 -4 -4 -6 6
-5 22 1 16 -2 37 -6 47 -11 24 11 22 24 -3z m268 -2 c-2 -13 -11 -24 -20 -26
-21 -4 -24 18 -6 36 19 19 30 14 26 -10z m426 6 c13 -33 5 -35 -136 -32 -140
3 -143 4 -146 26 -3 22 -3 22 136 22 118 0 141 -2 146 -16z m676 -29 c0 -43
-1 -45 -30 -45 -39 0 -41 27 -2 33 15 2 -17 5 -71 6 -54 0 -107 6 -117 11 -13
7 -21 7 -25 0 -4 -6 -69 -10 -165 -10 -162 0 -170 2 -170 41 0 5 121 9 290 9
l290 0 0 -45z m180 26 c0 -11 -4 -22 -9 -25 -5 -3 -7 -15 -4 -26 5 -17 0 -20
-31 -20 l-36 0 0 45 0 45 40 0 c33 0 40 -3 40 -19z m570 -3 l0 -23 -240 -3
c-132 -2 -240 0 -240 4 0 4 7 16 17 26 15 16 36 18 240 18 l223 0 0 -22z m380
-3 c0 -24 -2 -25 -74 -25 -41 0 -78 5 -81 10 -4 7 -12 7 -25 0 -10 -5 -37 -10
-59 -10 -37 0 -41 2 -41 25 l0 25 140 0 140 0 0 -25z m370 0 l0 -25 -140 0
-140 0 0 25 0 25 140 0 140 0 0 -25z m578 -2 l3 -23 -180 0 c-100 0 -181 3
-181 8 0 4 -29 5 -65 4 -60 -3 -65 -2 -65 17 0 21 2 21 243 19 l242 -3 3 -22z
m534 10 c10 -9 18 -19 18 -23 0 -11 -444 -6 -452 5 -24 32 -10 35 204 35 183
0 214 -2 230 -17z m268 -27 c0 -25 -5 -48 -11 -51 -7 -5 -8 -34 -3 -86 5 -56
3 -79 -5 -79 -6 0 -11 4 -11 10 0 5 -5 9 -11 7 -6 -1 -14 4 -17 12 -3 10 0 12
12 8 10 -4 16 -1 16 8 0 8 -7 15 -15 15 -8 0 -15 9 -15 20 0 11 7 20 15 20 11
0 15 11 15 43 0 58 11 117 21 117 5 0 9 -20 9 -44z m284 28 c3 -9 6 -20 6 -25
0 -13 -267 -12 -275 1 -4 6 -4 17 -1 25 8 23 261 22 270 -1z m486 7 c0 -5 -7
-17 -16 -26 -14 -13 -42 -15 -192 -13 -175 3 -177 3 -180 26 l-3 22 195 0
c114 0 196 -4 196 -9z m180 -16 c0 -23 -3 -25 -51 -25 -43 0 -50 3 -45 16 3 9
6 20 6 25 0 5 20 9 45 9 41 0 45 -2 45 -25z m111 2 c-13 -13 -26 -3 -16 12 3
6 11 8 17 5 6 -4 6 -10 -1 -17z m264 -2 c0 -18 -8 -20 -82 -23 -46 -2 -83 0
-83 3 0 4 5 15 11 26 9 17 19 19 82 17 64 -3 72 -5 72 -23z m515 0 l0 -25
-143 0 c-79 0 -147 3 -150 7 -4 3 -34 5 -67 4 -55 -2 -60 -1 -60 18 0 21 4 21
210 21 l210 0 0 -25z m773 3 c82 -34 81 -41 -8 -36 -44 3 -69 2 -55 -1 l25 -7
-22 -12 c-15 -9 -108 -12 -317 -12 -289 0 -296 0 -296 20 0 19 7 20 293 22
l292 3 -292 2 c-285 3 -293 4 -293 23 0 20 7 20 311 20 295 0 313 -1 362 -22z
m-7623 2 c0 -5 -6 -10 -12 -10 -10 0 -9 -3 1 -9 10 -6 10 -10 1 -16 -9 -6 -9
-10 1 -16 11 -7 11 -9 1 -9 -8 0 -11 -9 -8 -25 6 -33 -12 -33 -20 0 -9 36 4
95 21 95 8 0 15 -4 15 -10z m70 -45 c0 -53 -11 -72 -24 -40 -3 8 -12 15 -19
15 -8 0 -13 8 -12 18 5 40 18 62 36 62 16 0 19 -8 19 -55z m2288 33 c-2 -8 5
-12 17 -11 11 1 15 0 9 -3 -6 -2 -9 -16 -6 -29 2 -14 -1 -32 -8 -40 -11 -13
-10 -14 4 -9 14 5 17 2 14 -17 -4 -30 -37 -38 -55 -13 -18 24 -17 64 2 64 8 0
15 9 15 20 0 11 -7 20 -15 20 -8 0 -15 7 -15 15 0 8 9 15 20 15 11 0 19 -6 18
-12z m2572 -8 c0 -5 -4 -10 -10 -10 -5 0 -10 5 -10 10 0 6 5 10 10 10 6 0 10
-4 10 -10z m-3993 -25 c3 -9 2 -19 -1 -23 -8 -8 -38 10 -44 26 -6 18 38 14 45
-3z m1921 9 c12 -4 22 -13 22 -20 0 -12 -42 -14 -240 -14 -204 0 -240 2 -240
15 0 12 23 15 123 18 265 6 313 7 335 1z m1932 -20 c13 -13 -15 -14 -224 -12
-175 2 -240 6 -243 15 -6 17 70 21 277 16 135 -3 178 -8 190 -19z m1550 0 c0
-11 -20 -14 -100 -14 -55 0 -100 4 -100 8 0 21 26 27 109 24 71 -3 91 -7 91
-18z m-5310 1 c0 -9 -9 -15 -25 -15 -16 0 -25 6 -25 15 0 9 9 15 25 15 16 0
25 -6 25 -15z m448 -2 c3 -10 -32 -13 -152 -13 -133 0 -156 2 -156 15 0 13 21
15 152 13 110 -2 152 -6 156 -15z m412 2 c0 -13 -22 -15 -157 -13 -114 2 -157
6 -161 16 -3 9 33 12 157 12 138 0 161 -2 161 -15z m157 1 c-11 -9 -34 -12
-65 -8 -83 8 -82 21 3 21 69 0 78 -1 62 -13z m1213 -1 c0 -12 -16 -15 -80 -15
-64 0 -80 3 -80 15 0 12 16 15 80 15 64 0 80 -3 80 -15z m370 0 c0 -13 -22
-15 -140 -15 -118 0 -140 2 -140 15 0 13 22 15 140 15 118 0 140 -2 140 -15z
m600 0 c0 -13 -28 -15 -190 -15 -162 0 -190 2 -190 15 0 13 28 15 190 15 162
0 190 -2 190 -15z m700 0 c0 -9 -9 -15 -25 -15 -24 0 -32 10 -18 23 12 13 43
7 43 -8z m388 -2 c3 -10 -31 -13 -147 -13 -129 0 -151 2 -151 15 0 13 21 15
147 13 106 -2 147 -6 151 -15z m378 2 c-12 -13 -39 -15 -147 -13 -95 2 -134 7
-137 16 -3 9 31 12 148 12 136 0 150 -2 136 -15z m264 0 c0 -12 -15 -15 -76
-15 -67 0 -75 2 -64 15 9 10 32 15 76 15 50 0 64 -3 64 -15z m890 0 c0 -13
-23 -15 -150 -15 -127 0 -150 2 -150 15 0 13 23 15 150 15 127 0 150 -2 150
-15z m-5880 -5 c0 -5 -2 -10 -4 -10 -3 0 -8 5 -11 10 -3 6 -1 10 4 10 6 0 11
-4 11 -10z m6720 1 c0 -4 -28 -21 -62 -37 l-63 -29 -310 0 c-303 0 -310 0
-310 20 0 19 8 20 315 25 222 4 321 9 335 17 23 14 95 17 95 4z m-7800 -10 c0
-6 -4 -13 -10 -16 -5 -3 -10 1 -10 9 0 9 5 16 10 16 6 0 10 -4 10 -9z m816
-28 c-10 -10 -19 5 -10 18 6 11 8 11 12 0 2 -7 1 -15 -2 -18z m2254 -8 c0 -24
-5 -35 -15 -35 -8 0 -15 -9 -15 -20 0 -11 -7 -20 -15 -20 -8 0 -15 9 -15 20 0
11 7 20 15 20 10 0 15 11 15 35 0 24 5 35 15 35 10 0 15 -11 15 -35z m750 19
c0 -12 -51 -55 -59 -49 -16 9 -13 35 3 35 8 0 16 7 20 15 4 12 36 12 36 -1z
m2692 -15 c-12 -9 -22 -22 -22 -28 0 -6 -7 -11 -15 -11 -8 0 -15 7 -15 16 0
21 41 53 59 46 11 -4 10 -9 -7 -23z m-6594 5 c47 -32 11 -74 -63 -74 -41 0
-45 17 -14 61 23 33 44 36 77 13z m1220 -11 c3 -22 0 -23 -57 -23 -34 0 -61 4
-61 8 0 13 63 40 90 38 18 -1 26 -8 28 -23z m470 0 l3 -23 -165 0 -166 0 0 25
0 25 163 -2 c159 -3 162 -3 165 -25z m482 13 c0 -32 -25 -36 -201 -36 -182 0
-189 1 -189 41 0 6 78 9 195 8 142 -1 195 -5 195 -13z m66 -3 c-3 -10 -8 -30
-12 -45 -7 -32 -19 -36 -27 -10 -2 9 -8 26 -13 36 -6 16 -4 18 10 13 10 -4 19
-1 22 8 8 21 26 19 20 -2z m84 -8 c0 -21 -5 -25 -30 -25 -25 0 -30 4 -30 25 0
21 5 25 30 25 25 0 30 -4 30 -25z m178 -2 c3 -21 -1 -23 -37 -23 -37 0 -41 2
-41 26 0 23 3 25 38 22 30 -2 38 -7 40 -25z m572 2 l0 -25 -228 0 c-212 0
-228 1 -239 19 -7 10 -9 22 -6 25 4 3 111 6 240 6 l233 0 0 -25z m378 -2 c3
-23 3 -23 -137 -23 l-141 0 0 24 0 25 138 -2 c134 -2 137 -3 140 -24z m370 0
c3 -23 3 -23 -137 -23 l-141 0 0 25 0 26 138 -3 c134 -3 137 -4 140 -25z m622
8 c5 -11 10 -22 10 -25 0 -3 -121 -6 -270 -6 -267 0 -270 0 -270 21 0 19 5 20
65 17 36 -1 65 0 65 5 0 4 88 7 195 7 182 0 195 -1 205 -19z m572 2 c14 -13
21 -14 30 -5 7 7 27 12 45 12 26 0 33 -4 33 -20 0 -20 -7 -20 -285 -20 -271 0
-285 1 -295 19 -5 11 -10 22 -10 25 0 3 104 6 232 6 202 0 234 -2 250 -17z
m512 1 c3 -9 6 -20 6 -25 0 -13 -307 -12 -315 1 -4 6 -4 17 -1 25 8 23 301 22
310 -1z m376 -3 c22 -43 17 -44 -126 -38 -137 5 -153 10 -154 45 0 9 34 12
135 12 123 0 135 -2 145 -19z m248 -8 c3 -22 0 -23 -62 -23 -54 0 -67 3 -76
19 -5 11 -10 22 -10 26 0 3 33 5 73 3 66 -3 72 -5 75 -25z m82 -3 c0 -20 -5
-30 -15 -30 -8 0 -15 -9 -15 -20 0 -22 -24 -27 -36 -8 -4 7 2 18 14 26 12 8
22 25 22 38 0 15 6 24 15 24 10 0 15 -10 15 -30z m100 9 c11 -19 10 -20 -9 -9
-22 11 -29 30 -11 30 5 0 14 -9 20 -21z m195 -4 c0 -18 -8 -20 -74 -23 -58 -2
-77 1 -92 14 -11 9 -19 21 -19 26 0 5 42 7 93 6 84 -3 92 -5 92 -23z m515 0
l0 -25 -210 0 c-206 0 -210 0 -210 21 0 19 5 20 60 18 33 -1 63 1 67 4 3 4 71
7 150 7 l143 0 0 -25z m-4672 -18 c2 -10 -3 -17 -12 -17 -10 0 -16 9 -16 21 0
24 23 21 28 -4z m-2238 -2 c0 15 3 16 12 7 10 -10 10 -15 -2 -22 -19 -12 -30
-12 -30 0 0 5 -7 7 -15 4 -8 -4 -15 -2 -15 4 0 18 24 20 37 3 11 -14 12 -14
13 4z m110 -6 c0 -6 -4 -7 -10 -4 -5 3 -10 11 -10 16 0 6 5 7 10 4 6 -3 10
-11 10 -16z m720 17 c0 -3 -4 -8 -10 -11 -5 -3 -10 -1 -10 4 0 6 5 11 10 11 6
0 10 -2 10 -4z m1202 -58 c-28 -28 -104 -36 -137 -14 -40 26 -30 34 38 29 52
-5 66 -2 87 15 21 17 26 18 28 5 2 -9 -5 -24 -16 -35z m-2112 32 c0 -5 -4 -10
-10 -10 -5 0 -10 5 -10 10 0 6 5 10 10 10 6 0 10 -4 10 -10z m45 -18 c-7 -8
-35 7 -35 18 0 6 7 6 20 -2 10 -7 17 -14 15 -16z m655 18 c0 -5 -4 -10 -10
-10 -5 0 -10 5 -10 10 0 6 5 10 10 10 6 0 10 -4 10 -10z m6329 1 c8 -5 11 -16
7 -26 -5 -14 -9 -15 -21 -5 -16 13 -21 40 -7 40 4 0 13 -4 21 -9z m-6169 -11
c0 -5 -5 -10 -11 -10 -5 0 -7 5 -4 10 3 6 8 10 11 10 2 0 4 -4 4 -10z m1735
-6 c21 -8 48 -13 61 -10 17 5 24 1 29 -15 4 -11 5 -22 3 -24 -1 -1 -24 0 -50
4 -45 7 -88 33 -88 53 0 11 2 11 45 -8z m1255 6 c0 -5 -4 -10 -10 -10 -5 0
-10 5 -10 10 0 6 5 10 10 10 6 0 10 -4 10 -10z m988 -8 c2 -7 -6 -12 -17 -12
-21 0 -27 11 -14 24 9 9 26 2 31 -12z m1714 6 c-7 -7 -12 -16 -12 -22 0 -6 5
-5 12 2 8 8 48 12 114 12 l103 0 -5 -27 c-6 -33 -13 -41 -22 -26 -10 16 -208
21 -224 5 -19 -19 -28 -14 -28 18 0 25 4 30 25 30 14 0 25 5 25 10 0 6 5 10
12 10 9 0 9 -3 0 -12z m-5072 -19 c-7 -11 -14 -19 -16 -16 -7 7 7 37 17 37 6
0 5 -9 -1 -21z m2000 17 c0 -3 -4 -8 -10 -11 -5 -3 -10 -1 -10 4 0 6 5 11 10
11 6 0 10 -2 10 -4z m760 -5 c0 -5 -7 -14 -15 -21 -16 -14 -18 -10 -9 14 6 17
24 22 24 7z m1080 -12 c-7 -11 -14 -18 -17 -15 -8 8 5 36 17 36 7 0 7 -6 0
-21z m428 3 c2 -7 -6 -12 -17 -12 -21 0 -27 11 -14 24 9 9 26 2 31 -12z
m-2298 -2 c12 -7 12 -12 -4 -29 -26 -29 -36 -26 -36 9 0 31 13 37 40 20z m239
-20 c-10 -28 -29 -41 -29 -20 0 6 -38 10 -95 10 -77 0 -95 3 -95 15 0 11 21
15 103 18 56 1 107 4 114 5 9 1 9 -5 2 -28z m141 18 c0 -14 -30 -48 -42 -48
-4 0 -8 14 -8 30 0 25 4 30 25 30 14 0 25 -5 25 -12z m230 -5 c0 -26 -20 -52
-27 -35 -3 8 -33 12 -99 12 -72 0 -94 3 -94 13 0 24 12 27 117 27 91 0 103 -2
103 -17z m2320 -56 c0 -5 -5 -5 -11 -1 -7 4 -25 7 -40 6 -22 0 -29 4 -29 18 0
11 8 23 18 29 13 8 22 4 39 -17 12 -15 22 -31 23 -35z m-5550 43 c0 -5 -4 -10
-10 -10 -5 0 -10 -9 -10 -21 0 -15 -5 -20 -22 -17 -34 5 -34 34 -1 46 37 14
43 14 43 2z m2267 -42 c-2 -13 -4 -5 -4 17 -1 22 1 32 4 23 2 -10 2 -28 0 -40z
m3080 30 c-3 -8 -6 -5 -6 6 -1 11 2 17 5 13 3 -3 4 -12 1 -19z m-1349 0 c-6
-18 -28 -21 -28 -4 0 9 7 16 16 16 9 0 14 -5 12 -12z m1307 3 c3 -5 1 -12 -5
-16 -5 -3 -10 1 -10 9 0 18 6 21 15 7z m-3065 -22 c0 -24 -23 -21 -28 4 -2 10
3 17 12 17 10 0 16 -9 16 -21z m2670 17 c0 -3 -4 -8 -10 -11 -5 -3 -10 -1 -10
4 0 6 5 11 10 11 6 0 10 -2 10 -4z m-4880 -68 c-1 -28 -2 -30 -11 -15 -6 10
-8 25 -5 33 9 24 16 16 16 -18z m-63 -12 c-7 -21 -37 -19 -37 2 0 15 5 19 20
15 12 -3 19 -11 17 -17z m2313 8 c0 -8 -4 -12 -10 -9 -5 3 -10 10 -10 16 0 5
5 9 10 9 6 0 10 -7 10 -16z m-1830 -95 c0 -6 -4 -7 -10 -4 -5 3 -10 11 -10 16
0 6 5 7 10 4 6 -3 10 -11 10 -16z"/>
<path d="M6218 653 c17 -2 47 -2 65 0 17 2 3 4 -33 4 -36 0 -50 -2 -32 -4z"/>
<path d="M6910 609 c0 -5 5 -7 10 -4 6 3 10 8 10 11 0 2 -4 4 -10 4 -5 0 -10
-5 -10 -11z"/>
<path d="M1020 551 c0 -6 4 -13 10 -16 6 -3 7 1 4 9 -7 18 -14 21 -14 7z"/>
<path d="M727 543 c-4 -3 -7 -13 -7 -22 1 -13 3 -13 11 2 11 19 8 33 -4 20z"/>
<path d="M380 570 c0 -5 5 -10 11 -10 5 0 7 5 4 10 -3 6 -8 10 -11 10 -2 0 -4
-4 -4 -10z"/>
<path d="M436 554 c-5 -14 -4 -15 9 -4 17 14 19 20 6 20 -5 0 -12 -7 -15 -16z"/>
</g>
</svg>
